# This file uses meters as units for non-parametric coordinates.

v -55.731659 217.590443 1.808339
v -11.389343 217.590443 1.808339
v -55.731659 247.032536 1.808339
v -11.389343 247.032536 1.808339
v -55.731659 247.032536 -1.808339
v -11.389343 247.032536 -1.808339
v -55.731659 217.590443 -1.808339
v -11.389343 217.590443 -1.808339
v -55.731659 131.332905 1.808339
v -11.389343 131.332905 1.808339
v -55.731659 208.569370 1.808339
v -11.389343 208.569370 1.808339
v -55.731659 208.569370 -1.808339
v -11.389343 208.569370 -1.808339
v -55.731659 131.332905 -1.808339
v -11.389343 131.332905 -1.808339
v 4.851959 131.332905 1.808339
v 49.194275 131.332905 1.808339
v 4.851959 247.032551 1.808339
v 49.194275 247.032551 1.808339
v 4.851959 247.032551 -1.808339
v 49.194275 247.032551 -1.808339
v 4.851959 131.332905 -1.808339
v 49.194275 131.332905 -1.808339
vt 0.269293 0.733730
vt 0.419897 0.752799
vt 0.416332 0.850724
vt 0.264741 0.858792
vt 0.421587 0.858248
vt 0.258963 0.865648
vt 0.264028 0.726473
vt 0.425685 0.745676
vt 0.865916 0.026714
vt 0.856964 0.176791
vt 0.586422 0.174530
vt 0.579979 0.024324
vt 0.581773 0.182636
vt 0.575526 0.016142
vt 0.870506 0.018608
vt 0.861476 0.184974
vt 0.592320 0.211676
vt 0.741981 0.215100
vt 0.745206 0.619784
vt 0.595619 0.625592
vt 0.754332 0.623222
vt 0.586548 0.629151
vt 0.583194 0.208262
vt 0.751051 0.211517
vn 0.000000 0.000000 1.000000
vn 0.000000 0.000000 1.000000
vn 0.000000 0.000000 1.000000
vn 0.000000 0.000000 1.000000
vn 0.000000 1.000000 0.000000
vn 0.000000 1.000000 0.000000
vn 0.000000 1.000000 0.000000
vn 0.000000 1.000000 0.000000
vn 0.000000 -1.000000 0.000000
vn 0.000000 -1.000000 0.000000
vn 0.000000 -1.000000 0.000000
vn 0.000000 -1.000000 0.000000
vn 1.000000 0.000000 0.000000
vn 1.000000 0.000000 0.000000
vn 1.000000 0.000000 0.000000
vn 1.000000 0.000000 0.000000
vn -1.000000 0.000000 0.000000
vn -1.000000 0.000000 0.000000
vn -1.000000 0.000000 0.000000
vn -1.000000 0.000000 0.000000
vn 0.000000 0.000000 1.000000
vn 0.000000 0.000000 1.000000
vn 0.000000 0.000000 1.000000
vn 0.000000 0.000000 1.000000
vn 0.000000 1.000000 0.000000
vn 0.000000 1.000000 0.000000
vn 0.000000 1.000000 0.000000
vn 0.000000 1.000000 0.000000
vn 0.000000 -1.000000 0.000000
vn 0.000000 -1.000000 0.000000
vn 0.000000 -1.000000 0.000000
vn 0.000000 -1.000000 0.000000
vn 1.000000 0.000000 0.000000
vn 1.000000 0.000000 0.000000
vn 1.000000 0.000000 0.000000
vn 1.000000 0.000000 0.000000
vn -1.000000 0.000000 0.000000
vn -1.000000 0.000000 0.000000
vn -1.000000 0.000000 0.000000
vn -1.000000 0.000000 0.000000
vn 0.000000 0.000000 1.000000
vn 0.000000 0.000000 1.000000
vn 0.000000 0.000000 1.000000
vn 0.000000 0.000000 1.000000
vn 0.000000 1.000000 0.000000
vn 0.000000 1.000000 0.000000
vn 0.000000 1.000000 0.000000
vn 0.000000 1.000000 0.000000
vn 0.000000 -1.000000 0.000000
vn 0.000000 -1.000000 0.000000
vn 0.000000 -1.000000 0.000000
vn 0.000000 -1.000000 0.000000
vn 1.000000 0.000000 0.000000
vn 1.000000 0.000000 0.000000
vn 1.000000 0.000000 0.000000
vn 1.000000 0.000000 0.000000
vn -1.000000 0.000000 0.000000
vn -1.000000 0.000000 0.000000
vn -1.000000 0.000000 0.000000
vn -1.000000 0.000000 0.000000
s off
g glass window1
f 1/1/1 2/2/2 4/3/3 3/4/4
f 3/4/5 4/3/6 6/5/7 5/6/8
f 7/7/9 8/8/10 2/2/11 1/1/12
f 2/2/13 8/8/14 6/5/15 4/3/16
f 7/7/17 1/1/18 3/4/19 5/6/20
f 9/9/21 10/10/22 12/11/23 11/12/24
f 11/12/25 12/11/26 14/13/27 13/14/28
f 15/15/29 16/16/30 10/10/31 9/9/32
f 10/10/33 16/16/34 14/13/35 12/11/36
f 15/15/37 9/9/38 11/12/39 13/14/40
f 17/17/41 18/18/42 20/19/43 19/20/44
f 19/20/45 20/19/46 22/21/47 21/22/48
f 23/23/49 24/24/50 18/18/51 17/17/52
f 18/18/53 24/24/54 22/21/55 20/19/56
f 23/23/57 17/17/58 19/20/59 21/22/60
v 65.500000 113.182728 -7.678287
v -65.500000 113.182728 -7.678287
v -65.500000 113.182728 7.678287
v 65.500000 113.182728 7.678287
v -65.500000 265.182728 -7.678287
v -65.500000 265.182728 7.678287
v 65.500000 265.182728 7.678287
v 65.500000 265.182728 -7.678287
v 150.000000 13.182728 7.678288
v 150.000000 13.182728 -7.678288
v 150.000000 313.182728 -7.678288
v 150.000000 313.182728 7.678288
v -150.000000 313.182728 7.678288
v -150.000000 313.182728 -7.678288
v -150.000000 13.182728 -7.678288
v -150.000000 13.182728 7.678288
v 65.500000 113.182728 -3.995873
v -65.500000 113.182728 -3.995873
v -65.500000 265.182728 -3.995873
v 65.500000 265.182728 -3.995873
v -66.677979 111.815907 3.995873
v 66.677979 111.815907 3.995873
v -66.677979 266.549549 3.995873
v 66.677979 266.549549 3.995873
vt 0.836407 0.277097
vt 0.334267 0.276364
vt 0.333623 0.709132
vt 0.002870 0.987794
vt 0.004317 -0.003276
vt 0.995387 -0.001821
vt 0.835790 0.709865
vt 0.993924 0.989248
vn 1.000000 0.000000 0.000000
vn 1.000000 0.000000 0.000000
vn 1.000000 0.000000 0.000000
vn 1.000000 0.000000 0.000000
vn 0.000000 1.000000 0.000000
vn 0.000000 1.000000 0.000000
vn 0.000000 1.000000 0.000000
vn 0.000000 1.000000 0.000000
vn 0.000000 -0.000000 1.000000
vn -0.000000 0.000000 1.000000
vn 0.000000 -0.000000 1.000000
vn 0.000000 0.000000 1.000000
vn -0.000000 0.000000 1.000000
vn -0.000000 0.000000 1.000000
vn 0.000000 -0.000000 1.000000
vn 0.000000 -0.000000 1.000000
vn 0.000000 -1.000000 0.000000
vn 0.000000 -1.000000 0.000000
vn 0.000000 -1.000000 0.000000
vn 0.000000 -1.000000 0.000000
vn -1.000000 0.000000 0.000000
vn -1.000000 0.000000 0.000000
vn -1.000000 0.000000 0.000000
vn -1.000000 0.000000 0.000000
vn 0.000000 1.000000 0.000000
vn 0.000000 1.000000 0.000000
vn 0.000000 1.000000 0.000000
vn 0.000000 1.000000 0.000000
vn 1.000000 0.000000 0.000000
vn 1.000000 0.000000 0.000000
vn 1.000000 0.000000 0.000000
vn 1.000000 0.000000 0.000000
vn -1.000000 0.000000 0.000000
vn -1.000000 0.000000 0.000000
vn -1.000000 0.000000 0.000000
vn -1.000000 0.000000 0.000000
vn 0.000000 -1.000000 0.000000
vn 0.000000 -1.000000 0.000000
vn 0.000000 -1.000000 0.000000
vn 0.000000 -1.000000 0.000000
vn 0.000000 0.937503 -0.347978
vn 0.000000 0.937503 -0.347978
vn 0.000000 0.937503 -0.347978
vn 0.000000 0.937503 -0.347978
vn 0.952454 0.000000 -0.304683
vn 0.952454 0.000000 -0.304683
vn 0.952454 0.000000 -0.304683
vn 0.952454 0.000000 -0.304683
vn -0.952454 0.000000 -0.304683
vn -0.952454 0.000000 -0.304683
vn -0.952454 0.000000 -0.304683
vn -0.952454 0.000000 -0.304683
vn 0.000000 -0.937502 -0.347980
vn 0.000000 -0.937502 -0.347980
vn 0.000000 -0.937502 -0.347980
vn 0.000000 -0.937502 -0.347980
s off
g window1 wall
f 33//61 34//62 35//63 36//64
f 37//65 36//66 35//67 38//68
s 1
f 31/25/69 28/26/70 27/27/71 40/28/72 33/29/73 36/30/74
f 40/28/72 27/27/71 30/31/75 31/25/69 36/30/74 37/32/76
s off
f 39//77 34//78 33//79 40//80
f 39//81 40//82 37//83 38//84
f 25//85 26//86 42//87 41//88
f 26//89 29//90 43//91 42//92
f 32//93 25//94 41//95 44//96
f 29//97 32//98 44//99 43//100
f 27//101 28//102 46//103 45//104
f 30//105 27//106 45//107 47//108
f 28//109 31//110 48//111 46//112
f 31//113 30//114 47//115 48//116
v 59.474640 120.173985 3.995873
v -59.474640 120.173985 3.995873
v -59.474640 258.191471 3.995873
v 59.474640 258.191471 3.995873
v -53.994263 126.532902 3.995873
v 53.994263 126.532902 3.995873
v -53.994263 251.832554 3.995873
v 53.994263 251.832554 3.995873
v 0.051910 126.532902 3.995873
v -66.677979 111.815907 3.995873
v 66.677979 111.815907 3.995873
v 66.677979 266.549549 3.995873
v -66.677979 266.549549 3.995873
v 0.051941 266.549549 3.995873
v 0.051941 258.191456 3.995873
v 0.051971 251.832554 3.995873
v 0.051880 120.173985 3.995873
v 0.051849 111.815907 3.995873
v -6.589355 266.549549 3.995873
v -6.589355 258.191456 3.995873
v -6.589355 251.832554 3.995873
v -6.589355 126.532902 3.995873
v -6.589355 120.173985 3.995873
v -6.589355 111.815907 3.995873
v -49.194275 131.332905 -3.995873
v -49.194275 247.032551 -3.995873
v -49.194275 247.032551 3.995873
v -49.194275 131.332905 3.995873
v -11.389343 247.032536 -3.995873
v -11.389343 247.032551 3.995873
v -11.389343 131.332905 -3.995873
v -11.389343 131.332905 3.995873
v 4.851959 247.032551 3.995874
v 4.851959 247.032536 -3.995871
v 49.194275 247.032551 -3.995873
v 49.194275 247.032551 3.995873
v 49.194275 131.332905 -3.995873
v 49.194275 131.332905 3.995873
v 4.851898 131.332905 -3.995871
v 4.851898 131.332905 3.995874
v -11.389343 246.642307 3.995873
v -6.589355 246.757633 3.995873
v 0.051941 246.917210 3.995873
v -6.589355 131.332867 3.995873
v 0.051910 131.332859 3.995873
v -12.899017 247.032536 -3.995873
v -11.389343 217.590443 -3.995873
v 4.851929 217.590443 -3.995871
v 4.851929 217.590443 3.995874
v 0.051941 217.590443 3.995873
v -6.589355 217.590443 3.995873
v -11.389343 217.590443 3.995873
v -11.389343 208.569370 -3.995873
v -11.389343 208.569370 3.995873
v -6.589355 208.569370 3.995873
v 0.051941 208.569370 3.995873
v 4.851929 208.569370 3.995874
v 4.851929 208.569370 -3.995871
v -66.677979 217.590504 3.995873
v -59.474640 217.590473 3.995873
v -53.994263 217.590458 3.995873
v -49.194275 217.590443 3.995873
v -49.194275 217.590443 -3.995873
v -66.677979 208.569401 3.995873
v -59.474640 208.569386 3.995873
v -53.994263 208.569370 3.995873
v -49.194275 208.569355 3.995873
v -49.194275 208.569355 -3.995873
vt 0.768601 0.993625
vt 0.727411 0.993627
vt 0.727405 0.841878
vt 0.768595 0.841877
vt 0.874196 0.764720
vt 0.874196 0.168390
vt 0.915387 0.168390
vt 0.915387 0.764721
vt 0.717782 0.996240
vt 0.676592 0.996240
vt 0.717782 0.994228
vt 0.676592 0.844492
vt 0.717782 0.844491
vt 0.981407 0.840810
vt 0.940216 0.840810
vt 0.940216 0.794315
vt 0.981407 0.794315
vt 0.981407 0.992558
vt 0.940216 0.992559
vt 0.940216 0.396228
vt 0.981407 0.396229
vt 0.817029 0.802442
vt 0.775838 0.802446
vt 0.775838 0.404358
vt 0.817029 0.404358
vt 0.865129 0.593347
vt 0.865129 0.991433
vt 0.823939 0.991433
vt 0.823939 0.593346
vt 0.915375 0.993267
vt 0.874185 0.993266
vt 0.981412 0.167683
vt 0.940221 0.167682
vt 0.727405 0.654807
vt 0.727405 0.647026
vt 0.768595 0.647026
vt 0.823942 0.398495
vt 0.865133 0.398496
vt 0.817060 0.997292
vt 0.775870 0.997299
vt 0.676590 0.649640
vt 0.717780 0.649640
vt 0.326449 0.170720
vt 0.326449 0.142859
vt 0.548537 0.142859
vt 0.524526 0.170720
vt 0.304312 0.170720
vt 0.304312 0.142859
vt 0.548537 0.658641
vt 0.524526 0.630780
vt 0.326449 0.191916
vt 0.506258 0.191916
vt 0.104015 0.142859
vt 0.128027 0.170720
vt 0.304312 0.191916
vt 0.326449 0.658641
vt 0.326449 0.630780
vt 0.506258 0.609584
vt 0.490258 0.207916
vt 0.342449 0.207916
vt 0.146295 0.191916
vt 0.128027 0.465373
vt 0.104015 0.465373
vt 0.326449 0.207916
vt 0.304312 0.207916
vt 0.304312 0.658641
vt 0.304312 0.630780
vt 0.326450 0.609584
vt 0.490258 0.593584
vt 0.288312 0.207916
vt 0.162295 0.207916
vt 0.146295 0.465373
vt 0.128027 0.495443
vt 0.104015 0.495443
vt 0.326449 0.465373
vt 0.304312 0.465373
vt 0.104015 0.658641
vt 0.128027 0.630780
vt 0.304312 0.609584
vt 0.342450 0.593584
vt 0.342450 0.465373
vt 0.162295 0.465373
vt 0.146295 0.495443
vt 0.326449 0.495443
vt 0.304312 0.495443
vt 0.288312 0.465373
vt 0.146295 0.609584
vt 0.304312 0.592667
vt 0.326449 0.593199
vt 0.342450 0.495443
vt 0.162295 0.495443
vt 0.288312 0.495443
vt 0.162295 0.593584
vt 0.288312 0.593584
vt 0.288312 0.592283
vn 0.000000 0.000000 1.000000
vn 0.000000 0.000000 1.000000
vn 0.000000 0.000000 1.000000
vn 0.000000 0.000000 1.000000
vn -0.000000 0.000000 1.000000
vn -0.000000 0.000000 1.000000
vn -0.000000 0.000000 1.000000
vn -0.000000 0.000000 1.000000
vn 0.000000 0.000000 1.000000
vn 0.000000 0.000000 1.000000
vn 0.000000 0.000000 1.000000
vn 0.000000 0.000000 1.000000
vn 0.000000 0.000000 1.000000
vn 0.000000 0.000000 1.000000
vn 0.000000 0.000000 1.000000
vn 0.000000 0.000000 1.000000
vn 1.000000 0.000000 0.000000
vn 1.000000 0.000000 0.000000
vn 1.000000 0.000000 0.000000
vn 1.000000 0.000000 0.000000
vn 0.000000 -1.000000 0.000000
vn 0.000000 -1.000000 0.000000
vn 0.000000 -1.000000 0.000000
vn 0.000000 -1.000000 0.000000
vn -1.000000 0.000000 0.000000
vn -1.000000 0.000000 0.000000
vn -1.000000 0.000000 0.000000
vn -1.000000 0.000000 0.000000
vn 0.000000 0.000000 1.000000
vn 0.000000 0.000000 1.000000
vn 0.000000 0.000000 1.000000
vn 0.000000 -0.000000 1.000000
vn -0.000000 0.000000 1.000000
vn -0.000000 0.000000 1.000000
vn 0.000000 0.000000 1.000000
vn -0.000000 0.000000 1.000000
vn 0.000000 0.000000 1.000000
vn 0.000000 0.000000 1.000000
vn -0.000000 0.000000 1.000000
vn -0.000000 0.000000 1.000000
vn -0.000000 0.000000 1.000000
vn -0.000000 0.000000 1.000000
vn -0.000000 -0.000000 1.000000
vn -0.000000 0.000000 1.000000
vn -0.000000 0.000000 1.000000
vn 0.000000 0.000000 1.000000
vn 0.000000 0.000000 1.000000
vn 0.000000 0.000000 1.000000
vn 0.000000 0.000000 1.000000
vn 0.000000 0.000000 1.000000
vn 0.000000 1.000000 0.000000
vn 0.000000 1.000000 0.000000
vn 0.000000 1.000000 0.000000
vn 0.000000 1.000000 0.000000
vn -0.000000 0.000000 1.000000
vn -0.000000 0.000000 1.000000
vn 0.000000 0.000000 1.000000
vn -0.000000 -1.000000 0.000000
vn -0.000000 -1.000000 0.000000
vn -0.000000 -1.000000 0.000000
vn -0.000000 -1.000000 0.000000
vn -0.000000 -1.000000 0.000000
vn 0.000000 1.000000 0.000000
vn 0.000000 1.000000 0.000000
vn 0.000000 1.000000 0.000000
vn 0.000000 1.000000 0.000000
vn 0.000000 0.000000 1.000000
vn 0.000000 0.000000 1.000000
vn 0.000000 0.000000 1.000000
vn 0.000000 0.000000 1.000000
vn -1.000000 0.000000 0.000000
vn -1.000000 0.000000 0.000000
vn -1.000000 0.000000 0.000000
vn 1.000000 -0.000001 0.000000
vn 1.000000 -0.000001 0.000000
vn 1.000000 -0.000000 0.000000
vn 1.000000 -0.000000 0.000000
vn 0.000000 0.000000 1.000000
vn -0.000000 0.000000 1.000000
vn 0.000000 0.000000 1.000000
vn 0.000000 0.000000 1.000000
vn 0.000000 0.000000 1.000000
vn 0.000000 0.000000 1.000000
vn 0.000000 0.000000 1.000000
vn 0.000000 0.000000 1.000000
vn -0.000000 0.000000 1.000000
vn -0.000000 0.000000 1.000000
vn -0.000000 -0.000000 1.000000
vn -0.000000 -0.000000 1.000000
vn 0.000000 0.000000 1.000000
vn 0.000000 0.000000 1.000000
vn 0.000000 0.000000 1.000000
vn 0.000000 0.000000 1.000000
vn -0.000000 0.000000 1.000000
vn -0.000000 0.000000 1.000000
vn -0.000000 0.000000 1.000000
vn -0.000000 0.000000 1.000000
vn 0.000000 0.000000 1.000000
vn -0.000000 0.000000 1.000000
vn 1.000000 -0.000001 0.000000
vn 1.000000 -0.000001 0.000000
vn -1.000000 0.000000 0.000000
vn -1.000000 0.000000 0.000000
vn -1.000000 0.000000 0.000000
vn -1.000000 0.000000 0.000000
vn -1.000000 0.000000 0.000000
vn -1.000000 0.000000 0.000000
vn 1.000000 -0.000000 0.000000
vn 1.000000 -0.000000 0.000000
vn 0.000000 0.000000 1.000000
vn 0.000000 0.000000 1.000000
vn 0.000000 0.000000 1.000000
vn 0.000000 0.000000 1.000000
vn 0.000000 0.000000 1.000000
vn 0.000000 0.000000 1.000000
vn 0.000000 0.000000 1.000000
vn 0.000000 0.000000 1.000000
vn 1.000000 0.000000 0.000000
vn 1.000000 0.000000 0.000000
vn 1.000000 0.000000 0.000000
vn 1.000000 0.000000 0.000000
vn 0.000000 -1.000000 0.000000
vn 0.000000 -1.000000 0.000000
vn 0.000000 -1.000000 0.000000
vn 0.000000 -1.000000 0.000000
vn 0.000000 0.000000 1.000000
vn 0.000000 0.000000 1.000000
vn 0.000000 0.000000 1.000000
vn 0.000000 0.000000 1.000000
vn 0.000000 1.000000 0.000000
vn 0.000000 1.000000 0.000000
vn 0.000000 1.000000 0.000000
vn 0.000000 1.000000 0.000000
s 1
g modelPanel1ViewSelectedSet window1 window
f 65/75/117 66/76/118 59/77/119 49/78/120
s 2
f 61/109/121 107/106/122 108/105/123 51/110/124
s off
f 59/77/125 60/81/126 52/82/127 49/78/128
s 3
f 60/81/129 62/88/130 63/89/131 52/82/132
s off
f 110/33/133 111/34/134 74/35/135 75/36/136
f 81/62/137 82/63/138 83/37/139 84/40/140
f 83/37/141 85/38/142 86/39/143 84/40/144
s 4
f 70/87/145 71/79/146 65/75/147 57/83/148
f 51/110/149 108/105/150 109/115/151 55/119/152
f 52/82/153 63/89/154 64/100/155 56/90/156
f 49/78/157 52/82/158 56/90/156 54/84/159
s 3
f 63/89/131 62/88/130 67/98/160 68/99/161
s 4
f 64/100/155 63/89/154 68/99/162 69/111/163
s 1
f 71/79/164 72/80/165 66/76/118 65/75/117
s 4
f 57/83/148 65/75/147 49/78/166 54/84/159
s off
f 85/64/167 87/53/168 88/52/169 86/65/170
s 3
f 68/99/161 67/98/160 61/109/171 51/110/172
s 4
f 69/111/163 68/99/162 51/110/173 55/119/152
s off
f 74/35/174 94/66/175 77/67/176 78/68/177 75/36/178
f 80/69/179 79/70/180 73/58/181 76/61/182
s 4
f 50/86/183 71/79/146 70/87/145 53/93/184
s 1
f 58/85/185 72/80/165 71/79/164 50/86/186
s 8
f 78/41/187 77/42/188 89/43/189
s 9
f 96/46/190 97/47/191 105/48/192 106/49/193
s 4
f 64/100/155 69/111/163 90/120/194 91/121/195
f 55/119/152 109/115/151 110/123/196 75/125/197
f 69/111/163 55/119/152 75/125/197 78/126/198
f 53/93/184 70/87/145 80/102/199 76/103/200
f 89/127/201 90/120/194 69/111/163 78/126/198
f 56/90/156 64/100/155 81/112/202 84/101/203
f 54/84/159 56/90/156 84/101/203 86/91/204
f 57/83/148 54/84/159 86/91/204 88/92/205
f 64/100/155 91/121/195 81/112/202
f 102/118/206 103/108/207 99/117/208 100/124/209
f 98/116/210 99/117/208 103/108/207 104/107/211
f 97/122/212 98/116/210 104/107/211 105/113/213
f 70/87/145 92/97/214 80/102/199
f 93/96/215 92/97/214 70/87/145 57/83/148
f 88/92/205 93/96/215 57/83/148
s 9
f 82/50/216 81/51/217 97/47/191 96/46/190
s 4
f 81/112/202 91/121/195 98/116/210 97/122/212
f 91/121/195 90/120/194 99/117/208 98/116/210
f 100/124/209 99/117/208 90/120/194 89/127/201
s 8
f 89/43/189 77/42/188 95/44/218 100/45/219
s off
f 102/54/220 101/55/221 79/56/222 80/57/223
s 4
f 80/102/199 92/97/214 103/108/207 102/118/206
f 104/107/211 103/108/207 92/97/214 93/96/215
f 105/113/213 104/107/211 93/96/215 88/92/205
s 9
f 106/49/193 105/48/192 88/52/224 87/53/225
s 2
f 108/105/123 107/106/122 112/95/226 113/94/227
s 4
f 109/115/151 108/105/150 113/94/228 114/104/229
f 110/123/196 109/115/151 114/104/229 115/114/230
s 2
f 113/94/227 112/95/226 58/85/231 50/86/232
s 4
f 114/104/229 113/94/228 50/86/233 53/93/184
f 115/114/230 114/104/229 53/93/184 76/103/200
s off
f 73/58/234 116/59/235 115/60/236 76/61/237
f 101/55/238 102/54/239 115/71/240 116/72/241
f 102/118/242 100/124/243 110/123/244 115/114/245
f 100/45/246 95/44/247 111/73/248 110/74/249
